<?xml version="1.0" encoding="utf-8"?>
<!-- Generator: Adobe Illustrator 18.0.0, SVG Export Plug-In . SVG Version: 6.00 Build 0)  -->
<!DOCTYPE svg PUBLIC "-//W3C//DTD SVG 1.1//EN" "http://www.w3.org/Graphics/SVG/1.1/DTD/svg11.dtd">
<svg version="1.1" id="Layer_1" xmlns="http://www.w3.org/2000/svg" xmlns:xlink="http://www.w3.org/1999/xlink" x="0px" y="0px"
	 viewBox="-25 140 450 120" enable-background="new -25 140 450 120" xml:space="preserve">
<g id="bg">
</g>
<g id="cube">
</g>
<g id="swatch">
</g>
<g id="Layer_6">
</g>
<g id="Layer_9">
</g>
<g id="Layer_3">
</g>
<g id="cropped_white">
	<g>
		<g>
			<path fill="#FFFFFF" d="M120.4,222.1V173h18c10,0,16.3,6.2,16.3,16v17.2c0,9.8-6.2,16-16.3,16H120.4z M129.8,213.8h8.6
				c4.4,0,6.8-2.8,6.8-8.5v-15.5c0-5.6-2.4-8.5-6.8-8.5h-8.6V213.8z"/>
			<path fill="#FFFFFF" d="M198.5,199.7c0-9.2,5.9-14.8,15.3-14.8c9.4,0,15.3,5.6,15.3,14.8v8.3c0.1,9.2-5.9,14.8-15.3,14.8
				c-9.5,0-15.3-5.6-15.3-14.8V199.7z M207.5,207.2c0,5.2,2.2,7.8,6.3,7.8c4,0,6.2-2.7,6.2-7.8v-6.8c0-5.2-2.2-7.8-6.2-7.8
				c-4.1,0-6.2,2.7-6.2,7.8L207.5,207.2z"/>
			<path fill="#FFFFFF" d="M251.4,223.1c-8.9,0-15.5-5.9-15.5-15.2v-20.8c0-9.2,6.6-15.2,15.5-15.2c6.5,0,9.7,2,13.1,4.7l-2.4,3.2
				c-2.9-2.1-5.4-3.7-10.7-3.7c-6.6,0-11.1,4.4-11.1,12v18.8c0,7.6,4.5,12,11.1,12c5.2,0,7.7-1.5,10.7-3.7l2.4,3.2
				C261.1,221.1,257.9,223.1,251.4,223.1z"/>
			<path fill="#FFFFFF" d="M272.3,222.1v-52.7h4.1v52.7H272.3z"/>
			<path fill="#FFFFFF" d="M285.6,199.2c0-8.9,5.3-14.2,13.9-14.2c8.5,0,13.8,5.3,13.8,14.2v9.4c-0.1,8.9-5.2,14.2-13.8,14.2
				c-8.5,0-13.9-5.3-13.9-14.2V199.2z M289.7,207.7c0,7.4,3.6,11.2,9.8,11.2s9.6-3.8,9.7-11.2V200c0-7.4-3.5-11.2-9.7-11.2
				s-9.8,3.8-9.8,11.2V207.7z"/>
			<path fill="#FFFFFF" d="M333.8,222.8c-8.1,0-11.5-4.9-11.5-13.8v-23.5h4.1V208c0,7.3,1.7,11.2,7.6,11.2c4.6,0,8.3-3.2,10.7-6.4
				v-27.2h4.1v36.5h-3.4l-0.5-4.6C342.3,220.1,338.8,222.8,333.8,222.8z"/>
			<path fill="#FFFFFF" d="M382,218.5c-2.5,2.5-6.2,4.4-10.6,4.4c-8.6,0-13.2-5.3-13.2-14.2v-9.8c0-8.9,4.3-13.9,12.6-13.9
				c3.6,0,7,0.5,10.6,2.1v-17.6h4.1v52.7h-3L382,218.5z M381.3,191c-3.5-1.7-7-2.2-10.5-2.2c-6.3,0-8.7,3.9-8.7,11v7.9
				c0,7.4,2.7,11.2,9,11.2c4.6,0,7.9-1.8,10.2-4.9V191z"/>
			<g>
				<path fill="#FFFFFF" d="M191,222.1h-7.7l-0.5-3.5c-2.1,2.4-6,4.3-10.4,4.3c-7,0-12.3-5-12.3-10.9c0-15.6,21.5-15.6,21.5-15.6
					c0-1.2-1.7-4.9-9.4-4.9c-1.8,0-3.6,0.4-6.7,1.2l-1.8-4.8c3.6-1.6,7.6-2.8,12.2-2.8c9.5,0,15.1,4,15.1,13.1L191,222.1L191,222.1z
					 M174.3,215.8c3,0,5.9-1.8,7.6-4.2v-10c-1.4,0-12.5,1-12.5,9.3C169.4,213.4,171,215.8,174.3,215.8z"/>
			</g>
		</g>
		<g>
			<polygon fill="#FFFFFF" points="55.6,174.3 75.6,164.4 55.5,155.6 35.3,164.3 			"/>
			<polygon fill="#FFFFFF" points="34.9,201.4 33.9,185.1 48.5,177.8 27.8,167.5 14.5,173.3 16.2,189.1 			"/>
			<polygon fill="#FFFFFF" points="94.7,189 96.6,173.3 83,167.5 62.5,177.8 77.3,185.1 76.2,201.4 			"/>
			<polygon fill="#FFFFFF" points="75.6,209.2 74.1,230.5 91.2,217.6 93.8,197 			"/>
			<polygon fill="#FFFFFF" points="35.4,209.2 17.2,197 19.6,217.7 36.7,230.5 			"/>
			<polygon fill="#FFFFFF" points="69.2,213.5 55.6,222.7 41.9,213.5 43.3,235.3 55.6,244.4 67.6,235.3 			"/>
		</g>
	</g>
</g>
<g id="cropped_black">
</g>
<g id="Layer_5">
</g>
<g id="Layer_4">
</g>
</svg>
